<svg width="491" height="491" viewBox="0 0 491 491" fill="none" xmlns="http://www.w3.org/2000/svg">
<path fill-rule="evenodd" clip-rule="evenodd" d="M36 245.5C36 129.796 129.796 36 245.5 36C361.204 36 455 129.796 455 245.5C455 354.639 371.546 444.286 264.97 454.107C269.105 452.994 273.215 451.814 277.301 450.565L277.847 450.399L278.381 450.198C285.928 447.359 293.358 444.292 300.672 440.997L301.193 440.763L301.697 440.496C308.744 436.768 315.647 432.831 322.408 428.685L322.895 428.387L323.362 428.058C329.806 423.521 336.083 418.797 342.195 413.886L342.64 413.529L343.061 413.143C348.812 407.889 354.377 402.472 359.754 396.893L360.151 396.482L360.52 396.046C365.501 390.176 370.278 384.169 374.852 378.027L375.194 377.569L375.505 377.09C379.653 370.713 383.585 364.228 387.3 357.635L387.58 357.137L387.829 356.623C391.096 349.853 394.138 343.006 396.954 336.08L397.169 335.551L397.351 335.009C399.706 327.966 401.83 320.875 403.723 313.737L403.869 313.184L403.98 312.623C405.406 305.428 406.6 298.215 407.562 290.985L407.637 290.418L407.676 289.847C408.173 282.62 408.44 275.405 408.476 268.201L408.479 267.629L408.446 267.058C408.028 259.917 407.386 252.817 406.52 245.757L406.45 245.189L406.345 244.626C405.041 237.686 403.524 230.812 401.792 224.007L401.651 223.453L401.475 222.908C399.33 216.275 396.984 209.735 394.436 203.289L394.225 202.757L393.981 202.238C391.051 196.013 387.935 189.905 384.634 183.914L384.357 183.412L384.049 182.929C380.401 177.203 376.586 171.614 372.605 166.164L372.267 165.702L371.9 165.261C367.612 160.114 363.179 155.123 358.6 150.289L358.206 149.873L357.786 149.482C352.946 144.983 347.983 140.656 342.897 136.499L342.453 136.136L341.987 135.802C336.688 132.008 331.291 128.396 325.795 124.968L325.308 124.664L324.803 124.392C319.145 121.345 313.413 118.489 307.608 115.825L307.086 115.586L306.551 115.38C300.636 113.11 294.673 111.036 288.663 109.159L288.115 108.988L287.557 108.852C281.489 107.374 275.4 106.094 269.289 105.013L268.723 104.913L268.152 104.849C262.036 104.166 255.923 103.679 249.815 103.389L249.241 103.361L248.666 103.371C242.603 103.47 236.569 103.761 230.563 104.244L229.99 104.291L229.421 104.373C223.51 105.231 217.651 106.273 211.845 107.499L211.282 107.618L210.727 107.772C205.061 109.353 199.469 111.106 193.952 113.032L193.408 113.222L192.878 113.446C187.543 115.702 182.302 118.116 177.157 120.69L176.642 120.948L176.144 121.238C171.218 124.11 166.405 127.126 161.706 130.285L161.227 130.607L160.77 130.958C156.324 134.381 152.005 137.929 147.816 141.603L147.382 141.984L146.973 142.391C143.064 146.29 139.297 150.295 135.671 154.407L135.289 154.841L134.936 155.297C131.613 159.592 128.441 163.973 125.422 168.441L125.098 168.92L124.806 169.418C122.106 174.025 119.564 178.697 117.182 183.434L116.922 183.95L116.696 184.482C114.644 189.314 112.754 194.189 111.028 199.107L110.837 199.653L110.68 200.21C109.288 205.179 108.061 210.168 106.998 215.179L106.878 215.745L106.795 216.318C106.064 221.335 105.497 226.351 105.094 231.367L105.048 231.945L105.039 232.525C104.96 237.503 105.04 242.461 105.28 247.397L105.308 247.977L105.374 248.553C105.926 253.411 106.629 258.229 107.486 263.005L107.589 263.576L107.728 264.14C108.879 268.8 110.173 273.4 111.61 277.94L111.786 278.495L111.997 279.036C113.705 283.425 115.545 287.738 117.518 291.974L117.764 292.501L118.043 293.012C120.26 297.065 122.596 301.027 125.051 304.897L125.363 305.39L125.706 305.861C128.375 309.521 131.148 313.078 134.024 316.53L134.398 316.978L134.8 317.401C137.858 320.621 141.004 323.727 144.237 326.717L144.666 327.114L145.12 327.482C148.5 330.222 151.95 332.84 155.47 335.335L155.948 335.673L156.447 335.98C160.077 338.212 163.76 340.316 167.495 342.291L168.014 342.565L168.549 342.805C172.356 344.511 176.199 346.085 180.076 347.527L180.627 347.731L181.189 347.9C185.101 349.07 189.03 350.108 192.975 351.013L193.548 351.145L194.129 351.239C198.072 351.875 202.014 352.381 205.956 352.756L206.543 352.811L207.132 352.828C211.035 352.942 214.921 352.929 218.789 352.789L219.38 352.767L219.967 352.707C223.764 352.318 227.527 351.809 231.256 351.177L231.84 351.078L232.416 350.941C236.042 350.079 239.621 349.103 243.15 348.014L243.718 347.839L244.272 347.627C247.671 346.327 251.009 344.923 254.285 343.416L254.825 343.167L255.349 342.883C258.469 341.188 261.517 339.401 264.491 337.522L264.995 337.203L265.478 336.851C268.276 334.811 270.992 332.69 273.623 330.49L274.083 330.106L274.516 329.692C276.956 327.359 279.305 324.96 281.562 322.494L281.968 322.051L282.343 321.581C284.397 319.013 286.353 316.392 288.212 313.719L288.557 313.224L288.867 312.707C290.515 309.962 292.062 307.179 293.507 304.358L293.783 303.819L294.022 303.263C295.253 300.402 296.381 297.517 297.406 294.609L297.608 294.035L297.771 293.449C298.582 290.532 299.291 287.605 299.897 284.67L300.02 284.071L300.103 283.465C300.501 280.55 300.798 277.64 300.995 274.734L301.036 274.121L301.035 273.506C301.033 270.65 300.935 267.811 300.739 264.99L300.696 264.374L300.611 263.761C300.23 261.016 299.759 258.301 299.195 255.616L299.068 255.007L298.898 254.408C298.166 251.823 297.35 249.278 296.45 246.775L296.238 246.185L295.985 245.612C294.935 243.229 293.811 240.897 292.609 238.618L292.315 238.058L291.982 237.521C290.654 235.379 289.259 233.296 287.799 231.274L287.425 230.757L287.016 230.268C285.452 228.397 283.832 226.592 282.156 224.855L281.709 224.391L281.23 223.961C279.475 222.386 277.677 220.882 275.832 219.451L275.318 219.052L274.776 218.691C272.88 217.429 270.95 216.241 268.987 215.131L268.413 214.806L267.816 214.524C265.828 213.585 263.817 212.722 261.784 211.939L261.16 211.699L260.52 211.505C258.488 210.891 256.445 210.355 254.392 209.899L253.728 209.752L253.055 209.655C251.029 209.363 249.002 209.148 246.977 209.013L246.286 208.966L245.594 208.973C243.62 208.993 241.656 209.087 239.704 209.259L239.001 209.32L238.304 209.437C236.426 209.752 234.569 210.137 232.734 210.597L232.033 210.772L231.348 211.004C229.608 211.591 227.897 212.245 226.22 212.968L225.539 213.261L224.884 213.61C223.319 214.443 221.793 215.337 220.309 216.294L219.667 216.708L219.062 217.175C217.706 218.223 216.397 219.324 215.139 220.482L214.558 221.016L214.026 221.6C212.908 222.826 211.845 224.098 210.841 225.418L210.346 226.07L209.911 226.764C209.057 228.13 208.264 229.533 207.539 230.973L207.155 231.735L206.846 232.53C206.276 233.991 205.774 235.48 205.347 236.995L205.105 237.853L204.949 238.731C204.68 240.241 204.485 241.768 204.37 243.307L204.3 244.238L204.327 245.171C204.371 246.678 204.492 248.187 204.697 249.693L204.829 250.664L205.065 251.614C205.425 253.06 205.864 254.491 206.386 255.901C209.841 265.223 220.199 269.979 229.52 266.524C238.01 263.377 242.712 254.504 240.873 245.904C240.966 245.85 241.059 245.796 241.154 245.743C241.489 245.608 241.832 245.477 242.183 245.35C242.632 245.248 243.09 245.153 243.559 245.065C244.116 245.027 244.684 244.999 245.262 244.984C245.915 245.038 246.578 245.109 247.251 245.196C247.982 245.369 248.721 245.563 249.467 245.778C250.253 246.092 251.044 246.431 251.838 246.795C252.652 247.268 253.465 247.769 254.279 248.298C255.089 248.941 255.895 249.614 256.695 250.318C257.47 251.138 258.234 251.989 258.987 252.872C259.692 253.869 260.381 254.897 261.051 255.957C261.653 257.125 262.231 258.323 262.785 259.553C263.25 260.88 263.685 262.235 264.088 263.619C264.385 265.087 264.644 266.581 264.866 268.099C264.965 269.686 265.021 271.293 265.033 272.92C264.908 274.598 264.735 276.289 264.514 277.994C264.144 279.729 263.723 281.47 263.248 283.219C262.617 284.974 261.931 286.728 261.189 288.482C260.287 290.218 259.328 291.944 258.31 293.661C257.131 295.336 255.895 296.992 254.6 298.629C253.147 300.199 251.638 301.742 250.07 303.256C248.352 304.678 246.579 306.062 244.75 307.409C242.782 308.64 240.763 309.824 238.692 310.961C236.495 311.959 234.254 312.902 231.966 313.789C229.57 314.517 227.136 315.18 224.662 315.78C222.102 316.202 219.511 316.553 216.889 316.833C214.204 316.919 211.499 316.928 208.772 316.86C206.008 316.586 203.234 316.23 200.449 315.792C197.656 315.139 194.864 314.402 192.073 313.578C189.303 312.536 186.546 311.407 183.803 310.19C181.111 308.754 178.445 307.231 175.805 305.621C173.248 303.795 170.73 301.885 168.25 299.888C165.885 297.685 163.57 295.4 161.307 293.033C159.188 290.473 157.132 287.836 155.14 285.123C153.321 282.233 151.576 279.275 149.907 276.247C148.438 273.064 147.054 269.822 145.756 266.519C144.681 263.087 143.702 259.605 142.819 256.074C142.179 252.443 141.642 248.774 141.21 245.068C141.038 241.294 140.976 237.496 141.026 233.674C141.347 229.817 141.784 225.952 142.337 222.078C143.169 218.206 144.12 214.341 145.19 210.482C146.542 206.662 148.014 202.866 149.605 199.092C151.476 195.396 153.465 191.739 155.573 188.122C157.953 184.62 160.447 181.174 163.056 177.784C165.925 174.547 168.902 171.382 171.988 168.289C175.315 165.385 178.743 162.569 182.27 159.84C186.017 157.335 189.853 154.931 193.78 152.629C197.897 150.581 202.092 148.649 206.364 146.831C210.795 145.296 215.288 143.887 219.845 142.604C224.525 141.628 229.251 140.787 234.024 140.083C238.881 139.704 243.767 139.468 248.682 139.376C253.639 139.623 258.605 140.018 263.583 140.563C268.558 141.455 273.523 142.498 278.479 143.694C283.387 145.239 288.265 146.935 293.114 148.784C297.869 150.979 302.573 153.323 307.228 155.817C311.742 158.646 316.186 161.62 320.56 164.738C324.749 168.176 328.847 171.75 332.856 175.461C336.637 179.469 340.309 183.603 343.873 187.863C347.168 192.393 350.337 197.035 353.38 201.79C356.117 206.781 358.712 211.869 361.166 217.055C363.281 222.437 365.241 227.899 367.045 233.441C368.483 239.137 369.753 244.892 370.857 250.707C371.572 256.63 372.111 262.591 372.473 268.591C372.431 274.648 372.207 280.72 371.8 286.808C370.978 292.901 369.971 298.986 368.778 305.063C367.168 311.091 365.372 317.086 363.39 323.05C360.995 328.91 358.417 334.713 355.656 340.459C352.493 346.048 349.154 351.556 345.638 356.983C341.738 362.2 337.672 367.312 333.438 372.32C328.846 377.067 324.1 381.688 319.199 386.181C313.973 390.366 308.608 394.404 303.103 398.293C297.311 401.831 291.399 405.203 285.366 408.408C279.09 411.222 272.715 413.854 266.239 416.302C259.57 418.327 252.825 420.155 246.003 421.786C239.042 422.967 232.03 423.94 224.966 424.706C217.82 425.001 210.65 425.081 203.454 424.946C196.238 424.328 189.024 423.491 181.813 422.434C174.643 420.89 167.504 419.127 160.397 417.142C153.393 414.675 146.449 411.991 139.565 409.089C132.848 405.716 126.218 402.133 119.677 398.339C113.363 394.094 107.165 389.649 101.083 385.004C95.287 379.936 89.633 374.682 84.121 369.242C78.9505 363.414 73.9466 357.418 69.1091 351.254C64.664 344.745 60.4077 338.089 56.3403 331.285C52.6246 324.017 49.1273 316.621 45.8487 309.094L45.8289 309.103C39.445 289.044 36 267.674 36 245.5ZM245.5 0C109.914 0 0 109.914 0 245.5C0 381.086 109.914 491 245.5 491C381.086 491 491 381.086 491 245.5C491 109.914 381.086 0 245.5 0Z" fill="url(#paint0_linear_14_17)"/>
<defs>
<linearGradient id="paint0_linear_14_17" x1="245.5" y1="0" x2="245.5" y2="491" gradientUnits="userSpaceOnUse">
<stop stop-color="#A770EF"/>
<stop offset="1" stop-color="#E2ABFF"/>
</linearGradient>
</defs>
</svg>
